<svg width="22" height="20" viewBox="0 0 22 20" fill="none" xmlns="http://www.w3.org/2000/svg">
<path d="M21.6746 17.2727V13.6364C21.6746 13.3953 21.5795 13.164 21.4101 12.9935C21.2408 12.8231 21.0111 12.7273 20.7715 12.7273C20.532 12.7273 20.3023 12.8231 20.1329 12.9935C19.9636 13.164 19.8684 13.3953 19.8684 13.6364V17.2727C19.8684 17.5138 19.7733 17.7451 19.6039 17.9156C19.4345 18.086 19.2048 18.1818 18.9653 18.1818H2.70933C2.46981 18.1818 2.2401 18.086 2.07074 17.9156C1.90137 17.7451 1.80622 17.5138 1.80622 17.2727V13.6364C1.80622 13.3953 1.71107 13.164 1.54171 12.9935C1.37234 12.8231 1.14263 12.7273 0.90311 12.7273C0.66359 12.7273 0.433881 12.8231 0.264515 12.9935C0.095149 13.164 0 13.3953 0 13.6364V17.2727C0 17.996 0.285447 18.6897 0.793545 19.2012C1.30164 19.7127 1.99077 20 2.70933 20H18.9653C19.6839 20 20.373 19.7127 20.8811 19.2012C21.3892 18.6897 21.6746 17.996 21.6746 17.2727ZM15.9128 12.5273L11.3973 16.1636C11.2378 16.2905 11.0405 16.3595 10.8373 16.3595C10.6341 16.3595 10.4368 16.2905 10.2774 16.1636L5.76184 12.5273C5.59731 12.3709 5.49707 12.1581 5.48095 11.931C5.46482 11.7038 5.534 11.4788 5.67478 11.3005C5.81557 11.1222 6.01771 11.0036 6.2412 10.9682C6.4647 10.9327 6.69327 10.983 6.8817 11.1091L9.93421 13.5636V0.909091C9.93421 0.667985 10.0294 0.436754 10.1987 0.266267C10.3681 0.0957791 10.5978 0 10.8373 0C11.0768 0 11.3066 0.0957791 11.4759 0.266267C11.6453 0.436754 11.7404 0.667985 11.7404 0.909091V13.5636L14.7929 11.1091C14.8839 11.0227 14.9917 10.9562 15.1095 10.9139C15.2272 10.8716 15.3525 10.8544 15.4772 10.8634C15.6019 10.8724 15.7235 10.9073 15.8341 10.966C15.9447 11.0248 16.042 11.106 16.1198 11.2045C16.1977 11.3031 16.2543 11.4168 16.2862 11.5385C16.318 11.6603 16.3244 11.7873 16.305 11.9117C16.2855 12.036 16.2406 12.1549 16.1731 12.2609C16.1056 12.3669 16.0169 12.4576 15.9128 12.5273Z" fill="white" fill-opacity="0.8"/>
</svg>
