<svg width="22" height="21" viewBox="0 0 22 21" fill="none" xmlns="http://www.w3.org/2000/svg">
<path d="M11 21C10.6868 21 10.3848 20.8783 10.1495 20.6571C9.26077 19.8233 8.40392 19.0398 7.64793 18.3486L7.64407 18.345C5.42766 16.3185 3.5137 14.5685 2.18201 12.8445C0.693375 10.9173 0 9.08994 0 7.0937C0 5.15419 0.619858 3.36488 1.74527 2.05512C2.88411 0.729882 4.44676 0 6.14587 0C7.4158 0 8.57881 0.430762 9.60251 1.28022C10.1191 1.709 10.5874 2.23377 11 2.84587C11.4127 2.23377 11.8809 1.709 12.3977 1.28022C13.4214 0.430762 14.5844 0 15.8543 0C17.5532 0 19.1161 0.729882 20.2549 2.05512C21.3803 3.36488 22 5.15419 22 7.0937C22 9.08994 21.3068 10.9173 19.8182 12.8443C18.4865 14.5685 16.5727 16.3183 14.3566 18.3447C13.5993 19.0369 12.7411 19.8217 11.8503 20.6575C11.6152 20.8783 11.313 21 11 21ZM6.14587 1.38269C4.81099 1.38269 3.5847 1.95428 2.6926 2.99228C1.78723 4.04596 1.28856 5.50248 1.28856 7.0937C1.28856 8.77263 1.87015 10.2742 3.17415 11.9623C4.43451 13.594 6.30919 15.3081 8.47978 17.2928L8.48381 17.2964C9.24265 17.9902 10.1029 18.7769 10.9982 19.6168C11.8988 18.7752 12.7604 17.9874 13.5207 17.2924C15.6911 15.3077 17.5657 13.594 18.826 11.9623C20.1299 10.2742 20.7114 8.77263 20.7114 7.0937C20.7114 5.50248 20.2128 4.04596 19.3074 2.99228C18.4155 1.95428 17.189 1.38269 15.8543 1.38269C14.8764 1.38269 13.9786 1.7162 13.1859 2.37387C12.4794 2.96023 11.9873 3.70145 11.6987 4.2201C11.5504 4.4868 11.2892 4.646 11 4.646C10.7108 4.646 10.4496 4.4868 10.3013 4.2201C10.0129 3.70145 9.52077 2.96023 8.81413 2.37387C8.02139 1.7162 7.12358 1.38269 6.14587 1.38269Z" fill="white" fill-opacity="0.8"/>
</svg>
