<svg width="20" height="21" viewBox="0 0 20 21" fill="none" xmlns="http://www.w3.org/2000/svg">
<g clip-path="url(#clip0_1_23)">
<path d="M9.99999 20.8815C11.366 20.8815 12.652 20.6202 13.8578 20.0975C15.0637 19.5749 16.1274 18.8531 17.049 17.9319C17.9706 17.0108 18.6928 15.9476 19.2156 14.7423C19.7385 13.5371 20 12.2517 20 10.8864C20 9.52101 19.7385 8.23569 19.2156 7.03039C18.6928 5.8251 17.9706 4.7619 17.049 3.84077C16.1274 2.91966 15.0621 2.19779 13.8529 1.67517C12.6438 1.15255 11.3562 0.891235 9.99018 0.891235C8.62417 0.891235 7.33823 1.15255 6.13235 1.67517C4.92646 2.19779 3.86437 2.91966 2.94607 3.84077C2.02778 4.7619 1.30719 5.8251 0.784313 7.03039C0.261438 8.23569 0 9.52101 0 10.8864C0 12.2517 0.261438 13.5371 0.784313 14.7423C1.30719 15.9476 2.02941 17.0108 2.95097 17.9319C3.87255 18.8531 4.93627 19.5749 6.14214 20.0975C7.34803 20.6202 8.63398 20.8815 9.99999 20.8815Z" fill="white" fill-opacity="0.85"/>
<path d="M7.68624 15.8937C7.52938 15.7369 7.45095 15.5524 7.45095 15.34C7.45095 15.1277 7.52611 14.9497 7.67643 14.806L11.8333 10.8961L7.67643 6.99607C7.51958 6.85235 7.44442 6.6727 7.45095 6.45712C7.45749 6.24154 7.53919 6.05862 7.69605 5.90837C7.83984 5.76465 8.01468 5.69769 8.22056 5.70748C8.42644 5.71728 8.60781 5.79731 8.76467 5.94756L12.9705 9.89662C13.1666 10.073 13.2957 10.2837 13.3578 10.5287C13.4199 10.7736 13.4199 11.0186 13.3578 11.2636C13.2957 11.5086 13.1666 11.7192 12.9705 11.8956L8.76467 15.8545C8.62088 15.9917 8.43787 16.0636 8.21565 16.0701C7.99343 16.0766 7.81696 16.0178 7.68624 15.8937Z" fill="#20201F"/>
</g>
<defs>
<clipPath id="clip0_1_23">
<rect width="20" height="20" fill="white" transform="translate(0 0.891235)"/>
</clipPath>
</defs>
</svg>
